ffmpeg started on 2025-06-10 at 19:50:16
Report written to "D:\Convert\FFMetrics\reports\psnr_report-6.txt"
Log level: 32
Command line:
ffmpeg -hide_banner -nostdin -i "G:\\\xc0\xed\xe8\xec\xe5\\[\xd2\xee\xef-5]\\\xcd\xe5 \xec\xee\xff \xe2\xe8\xed\xe0, \xf7\xf2\xee \xff \xed\xe5 \xef\xee\xef\xf3\xeb\xff\xf0\xed\xe0!\\[AniDub]_Watashi_ga_Motenai_no_wa_Dou_Kangaete_mo_Omaera_ga_Warui_[04]_[720p_x264_aac]_[BalFor_Shina]_HEVC.mkv" -i "G:\\\xc0\xed\xe8\xec\xe5\\[\xd2\xee\xef-5]\\\xcd\xe5 \xec\xee\xff \xe2\xe8\xed\xe0, \xf7\xf2\xee \xff \xed\xe5 \xef\xee\xef\xf3\xeb\xff\xf0\xed\xe0!\\[AniDub]_Watashi_ga_Motenai_no_wa_Dou_Kangaete_mo_Omaera_ga_Warui_[04]_[720p_x264_aac]_[BalFor_Shina].mp4" -lavfi "[0:v]settb=AVTB,setpts=PTS-STARTPTS,format=pix_fmts=yuv420p10,fps=24000/1001,scale=1280:720:flags=bicubic[main];[1:v]settb=AVTB,setpts=PTS-STARTPTS,format=pix_fmts=yuv420p,fps=24000/1001,scale=1280:720:flags=bicubic[ref];[main][ref]psnr=eof_action=endall:stats_file='D\\:/Convert/FFMetrics/logs/psnr_logfile-6.txt'" -f null -
Input #0, matroska,webm, from 'G:\Аниме\[Топ-5]\Не моя вина, что я не популярна!\[AniDub]_Watashi_ga_Motenai_no_wa_Dou_Kangaete_mo_Omaera_ga_Warui_[04]_[720p_x264_aac]_[BalFor_Shina]_HEVC.mkv':
  Metadata:
    COMPATIBLE_BRANDS: isom
    MAJOR_BRAND     : isom
    MINOR_VERSION   : 1
    ENCODER         : Lavf61.7.100
  Duration: 00:24:15.12, start: 0.000000, bitrate: 885 kb/s
  Stream #0:0: Video: hevc (Main 10), yuv420p10le(tv, bt709, progressive), 1280x720 [SAR 1:1 DAR 16:9], 23.98 fps, 23.98 tbr, 1k tbn (default)
      Metadata:
        HANDLER_NAME    : www.AniDub.com
        VENDOR_ID       : [0][0][0][0]
        ENCODER         : Lavc61.19.100 libx265
        BPS             : 688057
        DURATION        : 00:24:15.037708333
        NUMBER_OF_FRAMES: 34886
        NUMBER_OF_BYTES : 125143718
        _STATISTICS_WRITING_APP: mkvpropedit v66.0.0 ('Josie') 64-bit
        _STATISTICS_WRITING_DATE_UTC: 2025-06-10 15:26:41
        _STATISTICS_TAGS: BPS DURATION NUMBER_OF_FRAMES NUMBER_OF_BYTES
  Stream #0:1(rus): Audio: aac (LC), 48000 Hz, stereo, fltp (default)
      Metadata:
        HANDLER_NAME    : GPAC ISO Audio Handler
        VENDOR_ID       : [0][0][0][0]
        ENCODER         : Lavc61.19.100 aac
        BPS             : 193435
        DURATION        : 00:24:14.955000000
        NUMBER_OF_FRAMES: 68202
        NUMBER_OF_BYTES : 35179967
        _STATISTICS_WRITING_APP: mkvpropedit v66.0.0 ('Josie') 64-bit
        _STATISTICS_WRITING_DATE_UTC: 2025-06-10 15:26:41
        _STATISTICS_TAGS: BPS DURATION NUMBER_OF_FRAMES NUMBER_OF_BYTES
Input #1, mov,mp4,m4a,3gp,3g2,mj2, from 'G:\Аниме\[Топ-5]\Не моя вина, что я не популярна!\[AniDub]_Watashi_ga_Motenai_no_wa_Dou_Kangaete_mo_Omaera_ga_Warui_[04]_[720p_x264_aac]_[BalFor_Shina].mp4':
  Metadata:
    major_brand     : isom
    minor_version   : 1
    compatible_brands: isom
    creation_time   : 2013-08-06T11:39:52.000000Z
    encoder         : Yamb 2.1.0.0 [http://yamb.unite-video.com]
  Duration: 00:24:15.12, start: 0.000000, bitrate: 1941 kb/s
  Stream #1:0[0x1](und): Video: h264 (High) (avc1 / 0x31637661), yuv420p(tv, bt709, progressive), 1280x720 [SAR 1:1 DAR 16:9], 1775 kb/s, 23.98 fps, 23.98 tbr, 24k tbn (default)
      Metadata:
        creation_time   : 2013-07-30T12:33:16.000000Z
        handler_name    : www.AniDub.com
        vendor_id       : [0][0][0][0]
  Stream #1:1[0x2](rus): Audio: aac (LC) (mp4a / 0x6134706D), 48000 Hz, stereo, fltp, 162 kb/s (default)
      Metadata:
        creation_time   : 2013-08-06T11:40:02.000000Z
        handler_name    : GPAC ISO Audio Handler
        vendor_id       : [0][0][0][0]
Stream mapping:
  Stream #0:0 (hevc) -> settb:default
  Stream #1:0 (h264) -> settb:default
  psnr:default -> Stream #0:0 (wrapped_avframe)
  Stream #0:1 -> #0:1 (aac (native) -> pcm_s16le (native))
Output #0, null, to 'pipe:':
  Metadata:
    COMPATIBLE_BRANDS: isom
    MAJOR_BRAND     : isom
    MINOR_VERSION   : 1
    encoder         : Lavf61.7.100
  Stream #0:0: Video: wrapped_avframe, yuv420p10le(tv, bt709, progressive), 1280x720 [SAR 1:1 DAR 16:9], q=2-31, 200 kb/s, 23.98 fps, 23.98 tbn
      Metadata:
        encoder         : Lavc61.19.100 wrapped_avframe
  Stream #0:1(rus): Audio: pcm_s16le, 48000 Hz, stereo, s16, 1536 kb/s (default)
      Metadata:
        HANDLER_NAME    : GPAC ISO Audio Handler
        VENDOR_ID       : [0][0][0][0]
        _STATISTICS_TAGS: BPS DURATION NUMBER_OF_FRAMES NUMBER_OF_BYTES
        BPS             : 193435
        DURATION        : 00:24:14.955000000
        NUMBER_OF_FRAMES: 68202
        NUMBER_OF_BYTES : 35179967
        _STATISTICS_WRITING_APP: mkvpropedit v66.0.0 ('Josie') 64-bit
        _STATISTICS_WRITING_DATE_UTC: 2025-06-10 15:26:41
        encoder         : Lavc61.19.100 pcm_s16le
frame=  332 fps=0.0 q=-0.0 size=N/A time=00:00:13.84 bitrate=N/A speed=26.5x    frame=  847 fps=821 q=-0.0 size=N/A time=00:00:35.32 bitrate=N/A speed=34.2x    frame= 1284 fps=825 q=-0.0 size=N/A time=00:00:53.55 bitrate=N/A speed=34.4x    frame= 1876 fps=908 q=-0.0 size=N/A time=00:01:18.24 bitrate=N/A speed=37.9x    frame= 2365 fps=917 q=-0.0 size=N/A time=00:01:38.64 bitrate=N/A speed=38.3x    frame= 2933 fps=945 q=-0.0 size=N/A time=00:02:02.33 bitrate=N/A speed=39.4x    frame= 3523 fps=974 q=-0.0 size=N/A time=00:02:26.93 bitrate=N/A speed=40.6x    frame= 4020 fps=975 q=-0.0 size=N/A time=00:02:47.66 bitrate=N/A speed=40.6x    frame= 4582 fps=985 q=-0.0 size=N/A time=00:03:11.10 bitrate=N/A speed=41.1x    frame= 5155 fps=999 q=-0.0 size=N/A time=00:03:35.00 bitrate=N/A speed=41.7x    frame= 5459 fps=963 q=-0.0 size=N/A time=00:03:47.68 bitrate=N/A speed=40.2x    frame= 5760 fps=930 q=-0.0 size=N/A time=00:04:00.24 bitrate=N/A speed=38.8x    frame= 6007 fps=896 q=-0.0 size=N/A time=00:04:10.54 bitrate=N/A speed=37.4x    frame= 6316 fps=874 q=-0.0 size=N/A time=00:04:23.42 bitrate=N/A speed=36.4x    frame= 6682 fps=863 q=-0.0 size=N/A time=00:04:38.69 bitrate=N/A speed=  36x    frame= 7056 fps=855 q=-0.0 size=N/A time=00:04:54.29 bitrate=N/A speed=35.7x    frame= 7495 fps=855 q=-0.0 size=N/A time=00:05:12.60 bitrate=N/A speed=35.7x    frame= 8137 fps=876 q=-0.0 size=N/A time=00:05:39.38 bitrate=N/A speed=36.5x    frame= 8705 fps=888 q=-0.0 size=N/A time=00:06:03.07 bitrate=N/A speed=  37x    frame= 9324 fps=904 q=-0.0 size=N/A time=00:06:28.88 bitrate=N/A speed=37.7x    frame= 9930 fps=916 q=-0.0 size=N/A time=00:06:54.16 bitrate=N/A speed=38.2x    frame=10546 fps=929 q=-0.0 size=N/A time=00:07:19.85 bitrate=N/A speed=38.8x    frame=11179 fps=943 q=-0.0 size=N/A time=00:07:46.25 bitrate=N/A speed=39.3x    frame=11874 fps=959 q=-0.0 size=N/A time=00:08:15.24 bitrate=N/A speed=  40x    frame=12512 fps=970 q=-0.0 size=N/A time=00:08:41.85 bitrate=N/A speed=40.5x    frame=13098 fps=977 q=-0.0 size=N/A time=00:09:06.29 bitrate=N/A speed=40.8x    frame=13736 fps=986 q=-0.0 size=N/A time=00:09:32.90 bitrate=N/A speed=41.1x    frame=14289 fps=989 q=-0.0 size=N/A time=00:09:55.97 bitrate=N/A speed=41.3x    frame=14899 fps=996 q=-0.0 size=N/A time=00:10:21.41 bitrate=N/A speed=41.6x    frame=15478 fps=1000 q=-0.0 size=N/A time=00:10:45.56 bitrate=N/A speed=41.7x    frame=16025 fps=1002 q=-0.0 size=N/A time=00:11:08.37 bitrate=N/A speed=41.8x    frame=16490 fps=999 q=-0.0 size=N/A time=00:11:27.77 bitrate=N/A speed=41.7x    frame=16962 fps=996 q=-0.0 size=N/A time=00:11:47.45 bitrate=N/A speed=41.6x    frame=17568 fps=1002 q=-0.0 size=N/A time=00:12:12.73 bitrate=N/A speed=41.8x    frame=18172 fps=1007 q=-0.0 size=N/A time=00:12:37.92 bitrate=N/A speed=  42x    frame=18775 fps=1011 q=-0.0 size=N/A time=00:13:03.07 bitrate=N/A speed=42.2x    frame=19393 fps=1016 q=-0.0 size=N/A time=00:13:28.84 bitrate=N/A speed=42.4x    frame=19975 fps=1019 q=-0.0 size=N/A time=00:13:53.12 bitrate=N/A speed=42.5x    frame=20337 fps=1011 q=-0.0 size=N/A time=00:14:08.22 bitrate=N/A speed=42.2x    frame=20721 fps=1004 q=-0.0 size=N/A time=00:14:24.23 bitrate=N/A speed=41.9x    frame=21337 fps=1009 q=-0.0 size=N/A time=00:14:49.93 bitrate=N/A speed=42.1x    frame=21909 fps=1011 q=-0.0 size=N/A time=00:15:13.78 bitrate=N/A speed=42.2x    frame=22466 fps=1013 q=-0.0 size=N/A time=00:15:37.01 bitrate=N/A speed=42.3x    frame=23072 fps=1017 q=-0.0 size=N/A time=00:16:02.29 bitrate=N/A speed=42.4x    frame=23580 fps=1016 q=-0.0 size=N/A time=00:16:23.48 bitrate=N/A speed=42.4x    frame=24084 fps=1015 q=-0.0 size=N/A time=00:16:44.50 bitrate=N/A speed=42.3x    frame=24657 fps=1017 q=-0.0 size=N/A time=00:17:08.40 bitrate=N/A speed=42.4x    frame=25291 fps=1021 q=-0.0 size=N/A time=00:17:34.84 bitrate=N/A speed=42.6x    frame=25808 fps=1021 q=-0.0 size=N/A time=00:17:56.40 bitrate=N/A speed=42.6x    frame=26444 fps=1026 q=-0.0 size=N/A time=00:18:22.93 bitrate=N/A speed=42.8x    frame=27112 fps=1031 q=-0.0 size=N/A time=00:18:50.79 bitrate=N/A speed=  43x    frame=27735 fps=1034 q=-0.0 size=N/A time=00:19:16.78 bitrate=N/A speed=43.1x    frame=28277 fps=1035 q=-0.0 size=N/A time=00:19:39.38 bitrate=N/A speed=43.2x    frame=28867 fps=1036 q=-0.0 size=N/A time=00:20:03.99 bitrate=N/A speed=43.2x    frame=29472 fps=1039 q=-0.0 size=N/A time=00:20:29.22 bitrate=N/A speed=43.3x    frame=30080 fps=1042 q=-0.0 size=N/A time=00:20:54.58 bitrate=N/A speed=43.5x    frame=30653 fps=1043 q=-0.0 size=N/A time=00:21:18.48 bitrate=N/A speed=43.5x    frame=31316 fps=1047 q=-0.0 size=N/A time=00:21:46.13 bitrate=N/A speed=43.7x    frame=31969 fps=1051 q=-0.0 size=N/A time=00:22:13.37 bitrate=N/A speed=43.8x    frame=32518 fps=1051 q=-0.0 size=N/A time=00:22:36.27 bitrate=N/A speed=43.8x    frame=32985 fps=1049 q=-0.0 size=N/A time=00:22:55.74 bitrate=N/A speed=43.7x    frame=33488 fps=1048 q=-0.0 size=N/A time=00:23:16.72 bitrate=N/A speed=43.7x    frame=34000 fps=1046 q=-0.0 size=N/A time=00:23:38.08 bitrate=N/A speed=43.6x    frame=34650 fps=1050 q=-0.0 size=N/A time=00:24:05.19 bitrate=N/A speed=43.8x    [Parsed_psnr_10 @ 00000206f9d157c0] PSNR y:47.319982 u:50.461397 v:50.635904 average:48.154430 min:36.468237 max:76.733598
[out#0/null @ 00000206f2014c80] video:14990KiB audio:272808KiB subtitle:0KiB other streams:0KiB global headers:0KiB muxing overhead: unknown
frame=34886 fps=1052 q=-0.0 Lsize=N/A time=00:24:14.97 bitrate=N/A speed=43.9x    
